<svg width="44" height="44" viewBox="0 0 44 44" fill="none" xmlns="http://www.w3.org/2000/svg">
<g filter="url(#filter0_d_2465_3250)">
<rect x="4" width="36" height="36" rx="4" fill="#007AD3"/>
<mask id="mask0_2465_3250" style="mask-type:luminance" maskUnits="userSpaceOnUse" x="4" y="0" width="36" height="36">
<rect x="4" width="36" height="36" rx="4" fill="white"/>
</mask>
<g mask="url(#mask0_2465_3250)">
<path fill-rule="evenodd" clip-rule="evenodd" d="M34.3174 18.4754C34.3606 17.5678 33.7123 17.3085 33.453 17.3085H24.0309C23.2097 17.3085 23.0801 18.1729 23.0801 18.2593V28.3729H34.3174V18.4754ZM27.8343 25.7364C27.8343 26.2119 27.4453 26.6008 26.9699 26.6008H26.1055C25.6301 26.6008 25.2411 26.2119 25.2411 25.7364V24.872C25.2411 24.3966 25.6301 24.0076 26.1055 24.0076H26.9699C27.4453 24.0076 27.8343 24.3966 27.8343 24.872V25.7364ZM26.9699 22.1924C27.4453 22.1924 27.8343 21.8034 27.8343 21.328V20.4636C27.8343 19.9881 27.4453 19.5991 26.9699 19.5991H26.1055C25.6301 19.5991 25.2411 19.9881 25.2411 20.4636V21.328C25.2411 21.8034 25.6301 22.1924 26.1055 22.1924H26.9699ZM32.1563 25.7364C32.1563 26.2119 31.7674 26.6008 31.2919 26.6008H30.4275C29.9521 26.6008 29.5631 26.2119 29.5631 25.7364V24.872C29.5631 24.3966 29.9521 24.0076 30.4275 24.0076H31.2919C31.7674 24.0076 32.1563 24.3966 32.1563 24.872V25.7364ZM31.2919 22.1924C31.7674 22.1924 32.1563 21.8034 32.1563 21.328V20.4636C32.1563 19.9881 31.7674 19.5991 31.2919 19.5991H30.4275C29.9521 19.5991 29.5631 19.9881 29.5631 20.4636V21.328C29.5631 21.8034 29.9521 22.1924 30.4275 22.1924H31.2919Z" fill="white"/>
<path fill-rule="evenodd" clip-rule="evenodd" d="M25.6737 8.79402V13.8076C25.6737 14.1533 25.328 14.672 24.8525 14.672H21.4381C20.4873 14.672 20.4873 15.7093 20.4873 15.7093V28.3728H9.25V8.57792C9.25 8.49148 9.37966 7.62708 10.2008 7.62708H24.8093C25.0686 7.62708 25.7169 7.8864 25.6737 8.79402ZM13.1398 26.1686C13.6153 26.1686 14.0042 25.7796 14.0042 25.3042V24.4398C14.0042 23.9644 13.6153 23.5754 13.1398 23.5754H12.2754C11.8 23.5754 11.411 23.9644 11.411 24.4398V25.3042C11.411 25.7796 11.8 26.1686 12.2754 26.1686H13.1398ZM14.0042 20.8525C14.0042 21.3279 13.6153 21.7169 13.1398 21.7169H12.2754C11.8 21.7169 11.411 21.3279 11.411 20.8525V19.9881C11.411 19.5127 11.8 19.1237 12.2754 19.1237H13.1398C13.6153 19.1237 14.0042 19.5127 14.0042 19.9881V20.8525ZM13.1398 17.3084C13.6153 17.3084 14.0042 16.9194 14.0042 16.444V15.5796C14.0042 15.1042 13.6153 14.7152 13.1398 14.7152H12.2754C11.8 14.7152 11.411 15.1042 11.411 15.5796V16.444C11.411 16.9194 11.8 17.3084 12.2754 17.3084H13.1398ZM14.0042 12.0356C14.0042 12.511 13.6153 12.9 13.1398 12.9H12.2754C11.8 12.9 11.411 12.511 11.411 12.0356V11.1711C11.411 10.6957 11.8 10.3067 12.2754 10.3067H13.1398C13.6153 10.3067 14.0042 10.6957 14.0042 11.1711V12.0356ZM17.8941 26.1686C18.3695 26.1686 18.7585 25.7796 18.7585 25.3042V24.4398C18.7585 23.9644 18.3695 23.5754 17.8941 23.5754H17.0297C16.5542 23.5754 16.1653 23.9644 16.1653 24.4398V25.3042C16.1653 25.7796 16.5542 26.1686 17.0297 26.1686H17.8941ZM18.7585 20.8525C18.7585 21.3279 18.3695 21.7169 17.8941 21.7169H17.0297C16.5542 21.7169 16.1653 21.3279 16.1653 20.8525V19.9881C16.1653 19.5127 16.5542 19.1237 17.0297 19.1237H17.8941C18.3695 19.1237 18.7585 19.5127 18.7585 19.9881V20.8525ZM17.8941 17.3084C18.3695 17.3084 18.7585 16.9194 18.7585 16.444V15.5796C18.7585 15.1042 18.3695 14.7152 17.8941 14.7152H17.0297C16.5542 14.7152 16.1653 15.1042 16.1653 15.5796V16.444C16.1653 16.9194 16.5542 17.3084 17.0297 17.3084H17.8941ZM18.7585 12.0356C18.7585 12.511 18.3695 12.9 17.8941 12.9H17.0297C16.5542 12.9 16.1653 12.511 16.1653 12.0356V11.1711C16.1653 10.6957 16.5542 10.3067 17.0297 10.3067H17.8941C18.3695 10.3067 18.7585 10.6957 18.7585 11.1711V12.0356ZM22.6483 12.9C23.1237 12.9 23.5127 12.511 23.5127 12.0356V11.1711C23.5127 10.6957 23.1237 10.3067 22.6483 10.3067H21.7839C21.3085 10.3067 20.9195 10.6957 20.9195 11.1711V12.0356C20.9195 12.511 21.3085 12.9 21.7839 12.9H22.6483Z" fill="white"/>
</g>
<rect x="4.5" y="0.5" width="35" height="35" stroke="#007AD3"/>
</g>
<defs>
<filter id="filter0_d_2465_3250" x="0" y="0" width="44" height="44" filterUnits="userSpaceOnUse" color-interpolation-filters="sRGB">
<feFlood flood-opacity="0" result="BackgroundImageFix"/>
<feColorMatrix in="SourceAlpha" type="matrix" values="0 0 0 0 0 0 0 0 0 0 0 0 0 0 0 0 0 0 127 0" result="hardAlpha"/>
<feOffset dy="4"/>
<feGaussianBlur stdDeviation="2"/>
<feComposite in2="hardAlpha" operator="out"/>
<feColorMatrix type="matrix" values="0 0 0 0 0 0 0 0 0 0 0 0 0 0 0 0 0 0 0.25 0"/>
<feBlend mode="normal" in2="BackgroundImageFix" result="effect1_dropShadow_2465_3250"/>
<feBlend mode="normal" in="SourceGraphic" in2="effect1_dropShadow_2465_3250" result="shape"/>
</filter>
</defs>
</svg>
