<?xml version="1.0" standalone="no"?>
<!DOCTYPE svg PUBLIC "-//W3C//DTD SVG 20010904//EN"
 "http://www.w3.org/TR/2001/REC-SVG-20010904/DTD/svg10.dtd">
<svg version="1.0" xmlns="http://www.w3.org/2000/svg"
 width="749.000000pt" height="749.000000pt" viewBox="0 0 749.000000 749.000000"
 preserveAspectRatio="xMidYMid meet">

<g transform="translate(0.000000,749.000000) scale(0.100000,-0.100000)"
fill="#f5d742" stroke="none">
<path d="M2530 6943 c-85 -35 -207 -86 -270 -113 l-115 -49 1 -44 c1 -24 22
-117 47 -208 51 -183 117 -432 125 -467 4 -20 -45 -74 -332 -360 -186 -186
-396 -393 -467 -461 l-129 -123 -133 35 c-347 92 -553 149 -569 158 -15 8 -22
3 -38 -23 -11 -18 -20 -36 -20 -41 0 -4 -45 -115 -101 -247 -55 -131 -99 -247
-97 -257 2 -11 81 -63 218 -142 254 -146 443 -256 710 -411 107 -62 204 -118
215 -124 11 -6 31 -19 44 -28 13 -10 29 -18 35 -18 7 0 19 41 29 99 36 211
170 533 305 736 75 113 209 273 287 345 33 30 62 57 65 60 24 27 190 157 250
197 276 183 683 322 992 339 73 4 132 12 137 18 4 6 61 102 125 213 64 112
134 231 156 265 22 34 38 63 36 65 -2 3 -213 5 -469 5 -255 0 -470 4 -476 8
-7 4 -95 148 -195 321 -101 173 -190 315 -197 316 -8 0 -84 -28 -169 -64z"/>
<path d="M4773 6999 c-7 -7 -13 -16 -13 -20 0 -3 -46 -84 -102 -180 -56 -96
-179 -307 -273 -469 -94 -162 -204 -351 -244 -418 -40 -68 -70 -130 -67 -138
3 -8 18 -14 33 -14 45 0 290 -65 378 -100 326 -130 532 -265 767 -503 344
-349 535 -781 594 -1347 4 -36 11 -70 16 -77 5 -7 119 -76 251 -153 133 -78
256 -150 272 -160 l30 -19 0 470 0 471 22 17 c18 15 106 67 311 186 140 81
245 144 279 167 l42 28 -23 57 c-34 85 -174 420 -198 476 -21 47 -35 56 -54
37 -5 -5 -43 -18 -84 -29 -86 -22 -109 -28 -393 -106 -114 -31 -212 -55 -217
-53 -14 5 -918 909 -924 924 -3 8 4 44 14 81 11 37 40 145 65 238 25 94 57
211 70 260 14 50 28 104 31 121 l6 31 -109 43 c-59 23 -180 74 -268 112 -184
80 -196 84 -212 67z"/>
<path d="M3675 4823 c-312 -44 -467 -172 -510 -422 -14 -78 -16 -180 -12 -729
4 -694 4 -698 64 -815 37 -73 62 -104 116 -144 69 -51 132 -79 231 -102 81
-20 117 -21 507 -21 l419 0 0 235 0 235 -398 0 c-296 0 -401 3 -410 12 -9 9
-12 165 -12 639 0 345 4 630 8 633 4 2 181 5 392 7 212 1 393 4 403 6 16 4 17
24 17 239 l0 234 -392 -1 c-216 -1 -406 -4 -423 -6z"/>
<path d="M1080 3566 c0 -227 -3 -441 -6 -474 -7 -60 -8 -63 -48 -85 -23 -13
-155 -90 -293 -171 -139 -80 -264 -151 -278 -158 -34 -15 -32 -33 14 -141 21
-51 71 -171 111 -267 39 -96 78 -181 85 -188 10 -11 17 -11 34 -3 20 11 605
176 665 188 26 5 59 -25 484 -448 251 -250 461 -461 465 -469 5 -10 -2 -53
-18 -110 -40 -149 -126 -478 -145 -557 -12 -53 -14 -75 -6 -82 11 -9 421 -173
466 -186 14 -4 36 -16 49 -26 30 -24 43 -24 57 -1 44 69 377 639 514 877 91
160 174 302 184 317 20 31 17 34 -54 43 -238 30 -525 145 -761 303 -325 219
-542 456 -717 782 -130 244 -213 532 -232 804 -7 105 -12 132 -27 146 -10 9
-121 77 -248 150 -126 73 -242 141 -257 152 -14 10 -29 18 -32 18 -3 0 -6
-186 -6 -414z"/>
<path d="M5820 3345 c0 -37 -64 -279 -100 -375 -102 -276 -268 -536 -475 -746
-66 -66 -142 -140 -170 -163 -61 -52 -206 -151 -289 -198 -270 -151 -681 -273
-924 -273 -53 0 -72 -4 -84 -17 -35 -43 -308 -517 -308 -537 0 -13 62 -15 463
-15 254 0 465 -1 469 -1 3 0 42 -62 86 -137 167 -291 284 -489 297 -501 11
-12 17 -12 36 1 24 15 49 26 219 93 52 20 119 47 148 60 29 13 55 24 58 24 3
0 20 6 37 14 18 8 40 16 50 20 25 8 22 33 -22 202 -106 409 -132 511 -137 528
-5 14 97 122 457 483 522 522 456 473 589 435 36 -11 169 -47 295 -81 127 -35
247 -70 268 -78 22 -10 41 -13 46 -7 4 5 40 88 80 184 40 96 79 189 86 205 46
103 73 178 69 189 -3 7 -22 21 -42 30 -20 10 -95 53 -167 95 -71 43 -281 165
-465 271 -184 106 -383 221 -442 256 -59 35 -112 64 -118 64 -5 0 -10 -11 -10
-25z"/>
</g>
</svg>
