<svg width="41" height="40" viewBox="0 0 41 40" fill="none" xmlns="http://www.w3.org/2000/svg">
<ellipse cx="20.3757" cy="20" rx="20.1364" ry="20" fill="#007AD3" fill-opacity="0.2"/>
<g clip-path="url(#clip0_0_1)">
<path d="M17.0533 23.9L13.1267 20L17.0533 16.1C17.4459 15.71 17.4459 15.09 17.0533 14.7C16.6606 14.31 16.0364 14.31 15.6437 14.7L11.0224 19.29C10.6297 19.68 10.6297 20.31 11.0224 20.7L15.6437 25.3C16.0364 25.69 16.6606 25.69 17.0533 25.3C17.4459 24.91 17.4459 24.29 17.0533 23.9ZM23.6983 23.9L27.6249 20L23.6983 16.1C23.3056 15.71 23.3056 15.09 23.6983 14.7C24.0909 14.31 24.7152 14.31 25.1078 14.7L29.7291 19.29C30.1218 19.68 30.1218 20.31 29.7291 20.7L25.1078 25.3C24.7152 25.69 24.0909 25.69 23.6983 25.3C23.3056 24.91 23.3056 24.29 23.6983 23.9Z" fill="#007AD3"/>
</g>
<defs>
<clipPath id="clip0_0_1">
<rect width="24.1637" height="24" fill="white" transform="translate(8.29395 8)"/>
</clipPath>
</defs>
</svg>
