<svg width="41" height="40" viewBox="0 0 41 40" fill="none" xmlns="http://www.w3.org/2000/svg">
<ellipse cx="20.3681" cy="20" rx="20.1364" ry="20" fill="#007AD3" fill-opacity="0.2"/>
<path d="M24.2989 21.0506L22.1631 23.1719L28.2002 29.1681L30.336 27.0468L24.2989 21.0506Z" fill="#007AD3"/>
<path d="M25.9057 18C27.8488 18 29.4296 16.43 29.4296 14.5C29.4296 13.92 29.2685 13.38 29.0168 12.9L26.2983 15.6L24.7982 14.11L27.5166 11.41C27.0333 11.16 26.4896 11 25.9057 11C23.9625 11 22.3818 12.57 22.3818 14.5C22.3818 14.91 22.4624 15.3 22.5932 15.66L20.7306 17.51L18.9385 15.73L19.6533 15.02L18.2337 13.61L20.3682 11.49C19.1902 10.32 17.2772 10.32 16.0992 11.49L12.5351 15.03L13.9547 16.44H11.1155L10.4006 17.15L13.9648 20.69L14.6796 19.98V17.15L16.0992 18.56L16.8141 17.85L18.6062 19.63L11.1457 27.04L13.2801 29.16L24.7378 17.79C25.1002 17.92 25.4929 18 25.9057 18Z" fill="#007AD3"/>
</svg>
