<svg width="268" height="275" viewBox="0 0 268 275" fill="none" xmlns="http://www.w3.org/2000/svg">
<g clip-path="url(#clip0_372_40)">
<path d="M238.101 209.283L238.096 209.407L244.388 275H198.474L192.523 234.714L189.904 273.967L142.754 273.451L147.762 221.916L152.021 198.029V198.024L152.661 194.429H236.849L236.959 195.73L238.101 209.283Z" fill="#2F2E41"/>
<path d="M116.765 247.307C121.628 248.181 126.698 242.782 128.09 235.249C128.7 231.951 128.503 228.791 127.681 226.207L128.427 221.864L140.939 163.446C140.939 163.446 163.98 118.008 163.979 110.12C163.979 102.232 157.314 98.3632 157.314 98.3632L148.296 98.4463L120.015 166.543L114.922 216.863L114.098 223.767C112.405 225.9 111.09 228.788 110.481 232.086C109.089 239.619 111.902 246.434 116.765 247.307Z" fill="#FFB6B6"/>
<path d="M208.501 70.2149L200.119 51.1051L172.877 55.7534L171.044 78.2367L208.501 70.2149Z" fill="#FFB6B6"/>
<path opacity="0.1" d="M208.501 70.2149L200.119 51.1051L172.877 55.7534L171.044 78.2367L208.501 70.2149Z" fill="black"/>
<path d="M267.701 109.984C267.701 109.984 248.317 74.3467 244.65 70.7314C243.017 69.1219 240.451 69.0995 238.105 69.5686L211.121 60.4017L201.975 55.3354L201.372 64.974L171.346 70.2873C171.513 64.4093 172.354 62.1735 172.354 62.1735L161.352 74.8632L139.873 85.1929L139.884 85.2859C138.308 85.8283 136.814 86.7565 135.682 88.2918C131.491 93.9731 119.965 163.182 119.965 163.182L144.588 168.346L147.939 147.615L150.35 166.281L152.184 201.143C152.184 201.143 185.713 229.55 201.953 219.22C218.194 208.89 238.101 209.407 238.101 209.407L238.598 193.247C238.951 192.69 239.149 192.363 239.149 192.363L238.625 135.042V119.789C242.616 125.27 247.432 129.985 253.032 132.193C271.368 139.423 267.701 109.984 267.701 109.984Z" fill="#E6E6E6"/>
<path d="M183.651 59.1157C197.492 59.1157 208.713 48.0537 208.713 34.408C208.713 20.7623 197.492 9.70026 183.651 9.70026C169.81 9.70026 158.589 20.7623 158.589 34.408C158.589 48.0537 169.81 59.1157 183.651 59.1157Z" fill="#FFB6B6"/>
<path d="M201.63 41.3906C201.63 41.3906 203.809 33.8709 208.713 34.408C213.616 34.9451 214.706 30.6481 213.616 28.4996C212.527 26.3511 210.347 15.6086 210.347 15.6086C210.347 15.6086 211.437 8.0889 204.899 7.01465C198.361 5.94041 196.182 4.86616 195.092 2.71766C194.003 0.56916 177.658 -1.57934 172.21 1.64341C166.761 4.86616 162.403 11.0494 158.589 12.7919C154.775 14.5344 151.506 17.7571 153.686 23.1284C155.865 28.4996 159.026 39.0046 159.026 39.0046C159.026 39.0046 164.582 37.0936 165.672 40.3163C166.761 43.5391 162.403 39.2421 167.851 30.6481C173.299 22.0541 173.299 13.4601 182.016 16.6829C190.734 19.9056 200.54 18.8314 199.451 25.2769C198.361 31.7224 201.63 41.3906 201.63 41.3906Z" fill="#2F2E41"/>
<path d="M200.098 237.264H9.76167C4.37898 237.264 0 232.946 0 227.64V127.963C0 122.656 4.37898 118.339 9.76167 118.339H200.098C205.48 118.339 209.859 122.656 209.859 127.963V227.64C209.859 232.946 205.48 237.264 200.098 237.264Z" fill="white"/>
<path d="M200.098 237.264H9.76167C4.37898 237.264 0 232.946 0 227.64V127.963C0 122.656 4.37898 118.339 9.76167 118.339H200.098C205.48 118.339 209.859 122.656 209.859 127.963V227.64C209.859 232.946 205.48 237.264 200.098 237.264ZM9.76167 119.946C5.27802 119.946 1.63013 123.542 1.63013 127.963V227.64C1.63013 232.06 5.27802 235.657 9.76167 235.657H200.098C204.581 235.657 208.229 232.06 208.229 227.64V127.963C208.229 123.542 204.581 119.946 200.098 119.946H9.76167Z" fill="#3F3D56"/>
<path d="M185.407 130.392C186.758 130.392 187.853 129.313 187.853 127.981C187.853 126.65 186.758 125.571 185.407 125.571C184.057 125.571 182.962 126.65 182.962 127.981C182.962 129.313 184.057 130.392 185.407 130.392Z" fill="#3F3D56"/>
<path d="M191.928 130.392C193.278 130.392 194.373 129.313 194.373 127.981C194.373 126.65 193.278 125.571 191.928 125.571C190.577 125.571 189.483 126.65 189.483 127.981C189.483 129.313 190.577 130.392 191.928 130.392Z" fill="#3F3D56"/>
<path d="M198.448 130.392C199.799 130.392 200.894 129.313 200.894 127.981C200.894 126.65 199.799 125.571 198.448 125.571C197.098 125.571 196.003 126.65 196.003 127.981C196.003 129.313 197.098 130.392 198.448 130.392Z" fill="#3F3D56"/>
<path d="M13.8561 166.953C13.182 166.953 12.6335 167.494 12.6335 168.159C12.6335 168.483 12.7605 168.783 12.9909 169.004C13.2234 169.238 13.5278 169.364 13.8561 169.364H196.818C197.492 169.364 198.041 168.823 198.041 168.159C198.041 167.835 197.914 167.535 197.683 167.314C197.451 167.079 197.147 166.953 196.818 166.953H13.8561Z" fill="#E6E6E6"/>
<path d="M173.996 166.552V169.766H13.8561C13.4078 169.766 13.0003 169.589 12.7069 169.292C12.4052 169.002 12.226 168.601 12.226 168.159C12.226 167.275 12.9595 166.552 13.8561 166.552H173.996Z" fill="#6C63FF"/>
<path d="M194.781 160.525H178.479C176.682 160.525 175.219 159.083 175.219 157.311C175.219 155.538 176.682 154.097 178.479 154.097H194.781C196.578 154.097 198.041 155.538 198.041 157.311C198.041 159.083 196.578 160.525 194.781 160.525Z" fill="#E6E6E6"/>
<path d="M88.0072 143.651H15.0787C13.2811 143.651 11.8185 142.209 11.8185 140.436C11.8185 138.664 13.2811 137.222 15.0787 137.222H88.0072C89.8049 137.222 91.2675 138.664 91.2675 140.436C91.2675 142.209 89.8049 143.651 88.0072 143.651Z" fill="#E6E6E6"/>
<path d="M13.8561 203.113C13.182 203.113 12.6335 203.654 12.6335 204.318C12.6335 204.642 12.7605 204.942 12.9909 205.163C13.2234 205.398 13.5278 205.524 13.8561 205.524H196.818C197.492 205.524 198.041 204.983 198.041 204.318C198.041 203.994 197.914 203.694 197.683 203.473C197.451 203.239 197.147 203.113 196.818 203.113H13.8561Z" fill="#E6E6E6"/>
<path d="M111.237 202.711V205.925H13.8561C13.4078 205.925 13.0003 205.749 12.7069 205.451C12.4052 205.162 12.226 204.76 12.226 204.318C12.226 203.434 12.9595 202.711 13.8561 202.711H111.237Z" fill="#6C63FF"/>
<path d="M194.781 196.685H178.479C176.682 196.685 175.219 195.243 175.219 193.47C175.219 191.698 176.682 190.256 178.479 190.256H194.781C196.578 190.256 198.041 191.698 198.041 193.47C198.041 195.243 196.578 196.685 194.781 196.685Z" fill="#E6E6E6"/>
<path d="M223.318 61.0175C237.416 61.0175 248.845 49.9875 248.845 36.3814C248.845 22.7753 237.416 11.7454 223.318 11.7454C209.22 11.7454 197.791 22.7753 197.791 36.3814C197.791 49.9875 209.22 61.0175 223.318 61.0175Z" fill="#6C63FF"/>
<path d="M231.982 23.9549C228.584 30.0556 225.185 36.1564 221.787 42.2572C219.621 38.4843 217.467 34.7048 215.295 30.9348C214.546 29.6328 212.506 30.8039 213.258 32.1092C215.775 36.4794 218.266 40.8641 220.783 45.2343C221.213 45.9815 222.394 45.9989 222.82 45.2343C226.554 38.5326 230.287 31.8309 234.02 25.1292C234.752 23.816 232.714 22.6406 231.982 23.9549Z" fill="white"/>
<path d="M258.557 101.319L233.124 89.3247C233.124 89.3247 232.103 81.2967 227.333 78.4332C226.522 76.5261 225.589 74.431 224.742 72.7709C222.646 68.6654 225.79 60.9182 223.17 60.9182C220.551 60.9182 216.679 69.0659 216.884 71.2479C217.041 72.9228 218.445 75.847 218.735 78.4068C215.541 79.5944 212.964 81.63 211.27 83.2509C209.804 84.6535 209.259 86.7462 209.832 88.6795C211.493 94.2818 215.643 105.852 221.599 105.852C229.457 105.852 231.552 104.303 231.552 104.303C231.552 104.303 247.793 124.445 259.842 125.995C271.892 127.544 258.557 101.319 258.557 101.319Z" fill="#FFB6B6"/>
</g>
<defs>
<clipPath id="clip0_372_40">
<rect width="268" height="275" fill="white"/>
</clipPath>
</defs>
</svg>
