<svg width="41" height="40" viewBox="0 0 41 40" fill="none" xmlns="http://www.w3.org/2000/svg">
<ellipse cx="20.3681" cy="20" rx="20.1364" ry="20" fill="#007AD3" fill-opacity="0.2"/>
<g clip-path="url(#clip0_0_1)">
<path d="M27.7684 17.6847C27.0837 14.0131 24.0331 11.2568 20.3682 11.2568C17.4585 11.2568 14.9314 13.0021 13.6729 15.5563C10.6423 15.8968 8.28638 18.6105 8.28638 21.899C8.28638 25.4215 10.9947 28.2842 14.3273 28.2842H27.416C30.1948 28.2842 32.4501 25.9004 32.4501 22.9632C32.4501 20.1536 30.3861 17.8762 27.7684 17.6847ZM18.3546 25.0916L14.8307 21.3668L16.2503 19.8663L18.3546 22.0799L23.5699 16.5779L24.9895 18.0784L18.3546 25.0916Z" fill="#007AD3"/>
</g>
<defs>
<clipPath id="clip0_0_1">
<rect width="24.1637" height="25.5411" fill="white" transform="translate(8.28638 7)"/>
</clipPath>
</defs>
</svg>
