<svg width="19" height="19" viewBox="0 0 19 19" fill="none" xmlns="http://www.w3.org/2000/svg">
<path fill-rule="evenodd" clip-rule="evenodd" d="M18.62 9.71589C18.62 9.04225 18.5595 8.39452 18.4473 7.77271H9.5V11.4475H14.6127C14.3925 12.635 13.7232 13.6411 12.717 14.3147V16.6984H15.7873C17.5836 15.0445 18.62 12.6091 18.62 9.71589Z" fill="#4285F4"/>
<path fill-rule="evenodd" clip-rule="evenodd" d="M9.50029 19.0001C12.0653 19.0001 14.2157 18.1494 15.7876 16.6985L12.7173 14.3148C11.8667 14.8848 10.7785 15.2216 9.50029 15.2216C7.02597 15.2216 4.93165 13.5505 4.18461 11.3051H1.01074V13.7664C2.57392 16.8712 5.78665 19.0001 9.50029 19.0001Z" fill="#34A853"/>
<path fill-rule="evenodd" clip-rule="evenodd" d="M4.18432 11.305C3.99432 10.735 3.88636 10.1261 3.88636 9.50001C3.88636 8.87387 3.99432 8.26501 4.18432 7.69501V5.23364H1.01045C0.367045 6.51614 0 7.96705 0 9.50001C0 11.033 0.367045 12.4839 1.01045 13.7664L4.18432 11.305Z" fill="#FBBC05"/>
<path fill-rule="evenodd" clip-rule="evenodd" d="M9.50029 3.77841C10.8951 3.77841 12.1473 4.25773 13.1319 5.19909L15.8567 2.47432C14.2114 0.941364 12.061 0 9.50029 0C5.78665 0 2.57392 2.12886 1.01074 5.23364L4.18461 7.695C4.93165 5.44955 7.02597 3.77841 9.50029 3.77841Z" fill="#EA4335"/>
</svg>
