<svg width="213" height="201" viewBox="0 0 213 201" fill="none" xmlns="http://www.w3.org/2000/svg">
<g clip-path="url(#clip0_372_7)">
<path d="M100.32 87.405C99.2447 85.0258 99.6491 82.5349 101.223 81.8415C102.796 81.1481 104.943 82.5148 106.017 84.895C106.46 85.8398 106.662 86.8783 106.604 87.9235L111.026 98.0627L106.039 100.069L102.21 89.8602C101.384 89.2039 100.736 88.362 100.32 87.405Z" fill="#FFAFAF"/>
<path d="M130.878 91.7101C133.574 94.2572 133.405 98.603 130.52 100.932L116.391 112.34C114.848 113.585 112.56 113.145 111.587 111.417C107.874 105.393 107.174 105.063 105.016 98.8892L111.102 96.7561L114.533 101.061L122.025 92.2056C124.289 89.5291 128.33 89.3029 130.878 91.7101Z" fill="#6C63FF"/>
<path d="M76.3264 76.3073V71.8186H31.9385V76.3073H76.3264Z" fill="#DFDFDF"/>
<path d="M188.721 76.3073V71.8186H144.334V76.3073H188.721Z" fill="#DFDFDF"/>
<path d="M56.5277 56.3154H48.9389C45.9958 56.3154 43.6099 58.7062 43.6099 61.6554V89.7381C43.6099 92.6872 45.9958 95.078 48.9389 95.078H56.5277C59.4709 95.078 61.8568 92.6872 61.8568 89.7381V61.6554C61.8568 58.7062 59.4709 56.3154 56.5277 56.3154Z" fill="#3F3D56"/>
<path d="M176.228 56.3154H168.639C165.696 56.3154 163.31 58.7062 163.31 61.6554V89.7381C163.31 92.6872 165.696 95.078 168.639 95.078H176.228C179.171 95.078 181.557 92.6872 181.557 89.7381V61.6554C181.557 58.7062 179.171 56.3154 176.228 56.3154Z" fill="#3F3D56"/>
<path d="M171.418 85.5702H55.5207C51.4914 85.5702 48.0436 82.6869 47.3228 78.7147L42.8906 54.2877C40.9631 43.6647 44.9569 32.8416 53.3155 26.0311L62.0551 7.18942C64.0809 2.82191 68.4955 0 73.3018 0H138.587C142.058 0 145.392 1.47131 147.736 4.03682L163.795 21.6186C175.544 29.5519 182.209 43.2726 181.192 57.4332L179.729 77.8201C179.416 82.1659 175.766 85.5702 171.418 85.5702Z" fill="#DFDFDF"/>
<path d="M151.638 24.318H64.0766C62.5559 24.318 61.1526 23.5555 60.3228 22.2789C59.4931 21.0018 59.3649 19.4073 59.98 18.0138L64.5953 7.55791C65.2977 5.96661 66.8732 4.91777 68.6089 4.88599L143.253 4.97705C144.674 4.96777 146.031 5.60878 146.893 6.73691L155.196 17.1018C156.239 18.4681 156.415 20.2747 155.654 21.8175C154.894 23.3598 153.355 24.318 151.638 24.318Z" fill="white"/>
<path d="M164.77 51.9272C169.002 51.9272 172.433 48.4891 172.433 44.2479C172.433 40.0067 169.002 36.5685 164.77 36.5685C160.537 36.5685 157.106 40.0067 157.106 44.2479C157.106 48.4891 160.537 51.9272 164.77 51.9272Z" fill="white"/>
<path d="M64.0464 51.9272C68.279 51.9272 71.7101 48.4891 71.7101 44.2479C71.7101 40.0067 68.279 36.5685 64.0464 36.5685C59.8139 36.5685 56.3827 40.0067 56.3827 44.2479C56.3827 48.4891 59.8139 51.9272 64.0464 51.9272Z" fill="white"/>
<path d="M157.288 72.9541H73.7173V72.7713C73.7173 68.4359 77.237 64.9091 81.5635 64.9091H149.442C153.769 64.9091 157.288 68.4359 157.288 72.7713V72.9541Z" fill="#3F3D56"/>
<path d="M54.5438 27.6416C54.0915 27.6416 53.6384 27.4974 53.258 27.206L50.1981 24.8619C49.8943 24.629 49.5163 24.5008 49.1336 24.5008H42.4514C41.6869 24.5008 41.0018 24.1051 40.6187 23.442C40.2357 22.7792 40.2343 21.9867 40.6149 21.3225L42.2462 18.4749C42.572 17.906 43.1539 17.5146 43.8029 17.4278L52.1631 16.3108C53.2051 16.1722 54.1752 16.8032 54.4734 17.8117L56.5746 24.9176C56.806 25.7 56.5633 26.5571 55.9564 27.1017C55.5565 27.4602 55.0508 27.6416 54.5438 27.6416Z" fill="#DFDFDF"/>
<path d="M162.959 26.1789C162.452 26.1789 161.947 25.9975 161.547 25.6389C160.94 25.0943 160.697 24.2373 160.928 23.4548L163.03 16.349C163.328 15.3398 164.299 14.7066 165.34 14.8484L173.7 15.9651C174.349 16.0519 174.931 16.4433 175.257 17.0121L176.888 19.8598C177.269 20.524 177.267 21.3164 176.884 21.9792C176.501 22.6424 175.816 23.0381 175.051 23.0381H168.369C167.987 23.0381 167.609 23.1663 167.305 23.3991L164.245 25.7432C163.865 26.0346 163.411 26.1789 162.959 26.1789Z" fill="#DFDFDF"/>
<path d="M36.4181 13.874H31.9386V197.909H36.4181V13.874Z" fill="#DFDFDF"/>
<path d="M191.165 13.874H186.685V197.909H191.165V13.874Z" fill="#DFDFDF"/>
<path d="M0 198.088C0 198.228 0.112114 198.34 0.251728 198.34H212.748C212.888 198.34 213 198.228 213 198.088C213 197.948 212.888 197.836 212.748 197.836H0.251728C0.112114 197.836 0 197.948 0 198.088Z" fill="#3F3D56"/>
<path d="M140.307 184.167V192.503L146.596 192.706L146.334 184.167H140.307Z" fill="#FFAFAF"/>
<path d="M139.062 188.806C138.977 188.806 138.894 188.816 138.813 188.84C137.678 189.165 131.107 195.043 129.12 196.837C128.874 197.058 128.744 197.375 128.762 197.705C128.78 198.034 128.943 198.333 129.21 198.525C130.717 199.612 133.803 201.333 137.549 200.638C139.272 200.318 141.011 200.117 142.545 199.939C145.829 199.559 148.423 199.259 148.423 198.094C148.423 196.118 147.88 190.908 147.199 190.69C147.137 190.671 147.066 190.719 146.983 190.834C145.942 192.295 142.364 191.518 142.212 191.484L142.172 191.475L142.15 191.441C142.131 191.413 140.379 188.806 139.062 188.806Z" fill="#2F2E41"/>
<path d="M128.538 184.167V192.503L134.828 192.706L134.566 184.167H128.538Z" fill="#FFAFAF"/>
<path d="M126.002 124.494L122.654 127.036L122.046 155.703L127.727 187.014L135.133 187.319L135.335 157.431L144.872 130.187L142.944 123.783L126.002 124.494Z" fill="#2F2E41"/>
<path d="M141.625 129.374L144.872 130.187L147.205 187.014L138.785 186.302L133.205 146.147L141.625 129.374Z" fill="#2F2E41"/>
<path d="M124.048 201C121.161 201 118.816 199.722 117.563 198.86C117.185 198.599 116.951 198.186 116.921 197.725C116.891 197.261 117.071 196.816 117.417 196.505C120.525 193.702 125.903 188.955 126.989 188.644C128.396 188.24 130.284 190.936 130.527 191.294C130.92 191.374 134.141 191.991 135.05 190.716C135.223 190.473 135.386 190.462 135.493 190.496C136.464 190.808 136.857 197.073 136.857 198.094C136.857 199.44 134.316 199.734 130.8 200.141C129.269 200.318 127.534 200.519 125.818 200.837C125.209 200.95 124.618 201 124.048 201Z" fill="#2F2E41"/>
<path d="M132.959 87.3633L135.27 92.0286L126.535 96.2558L126.642 88.7766L132.959 87.3633Z" fill="#FFAFAF"/>
<path d="M126.566 90.8925C130.907 90.8925 134.426 87.3665 134.426 83.0169C134.426 78.6673 130.907 75.1412 126.566 75.1412C122.226 75.1412 118.707 78.6673 118.707 83.0169C118.707 87.3665 122.226 90.8925 126.566 90.8925Z" fill="#FFAFAF"/>
<path d="M126.513 94.437L134.572 89.6652C140.483 93.8188 145.405 94.7906 145.561 102.023L144.472 119.275L144.536 126.705C144.563 129.824 142.047 132.367 138.934 132.367H127.426C124.381 132.367 122.112 129.551 122.753 126.568L124.926 116.461L122.606 96.7617L126.513 94.437Z" fill="#6C63FF"/>
<path d="M134.649 86.9796L133.196 88.0227C133.196 88.0227 132.768 83.4762 132.178 83.2744C131.588 83.0727 130.792 84.1205 130.792 84.1205L130.211 85.8274L128.288 85.0245C128.288 85.0245 126.063 83.8233 125.276 83.5543C124.489 83.2853 124.609 81.0012 124.609 81.0012C124.609 81.0012 115.165 82.2968 116.584 76.8415C116.584 76.8415 117.073 72.8283 118.118 73.626C119.164 74.4236 119.178 72.4483 119.178 72.4483L121.547 71.9385C121.547 71.9385 124.799 67.5499 131.212 71.2832C137.625 75.0165 134.649 86.9796 134.649 86.9796Z" fill="#2F2E41"/>
<path d="M118.246 104.412L116.123 104.088C115.53 103.998 115.119 103.438 115.209 102.843L115.469 101.137C114.698 101.614 114.132 102.413 113.985 103.38C113.758 104.873 114.6 106.279 115.936 106.827L114.078 119.046C114.074 119.077 114.075 119.107 114.074 119.137C112.632 119.257 111.405 120.35 111.178 121.846C111.044 122.723 111.28 123.571 111.767 124.233L112 122.696C112.091 122.102 112.65 121.69 113.243 121.78L115.366 122.104C115.959 122.195 116.37 122.755 116.28 123.349L116.02 125.056C116.791 124.578 117.356 123.78 117.503 122.812C117.731 121.316 116.885 119.907 115.544 119.362C115.552 119.333 115.562 119.304 115.567 119.274L117.424 107.054C118.863 106.93 120.084 105.839 120.311 104.346C120.444 103.469 120.209 102.621 119.722 101.959L119.488 103.497C119.398 104.091 118.839 104.503 118.246 104.412Z" fill="#3F3D56"/>
<path d="M114.291 115.044C111.743 114.494 109.986 112.687 110.366 111.007C110.746 109.327 113.119 108.411 115.668 108.962C116.689 109.167 117.642 109.623 118.446 110.291L129.21 112.761L127.852 117.971L117.385 114.982C116.367 115.257 115.306 115.278 114.291 115.044Z" fill="#FFAFAF"/>
<path d="M135.924 92.9924C139.571 92.3364 142.956 95.0578 143.109 98.7674L143.854 116.934C143.935 118.916 142.221 120.498 140.255 120.253C133.215 119.661 133.709 120.383 127.473 118.449L127.891 111.808L133.702 111.72L131.055 100.418C130.255 97.0018 132.477 93.6123 135.924 92.9924Z" fill="#6C63FF"/>
</g>
<defs>
<clipPath id="clip0_372_7">
<rect width="213" height="201" fill="white"/>
</clipPath>
</defs>
</svg>
