<svg width="40" height="10" viewBox="0 0 40 10" fill="none" xmlns="http://www.w3.org/2000/svg">
<path fill-rule="evenodd" clip-rule="evenodd" d="M30.6083 0.545754C30.0625 1.09151 30.0625 1.96989 30.0625 3.72664V6.21107C30.0625 7.96783 30.0625 8.84621 30.6083 9.39196C31.154 9.93772 32.0324 9.93772 33.7891 9.93772H36.2736C38.0303 9.93772 38.9087 9.93772 39.4545 9.39196C40.0002 8.84621 40.0002 7.96783 40.0002 6.21107V3.72664C40.0002 1.96989 40.0002 1.09151 39.4545 0.545754C38.9087 0 38.0303 0 36.2736 0H33.7891C32.0324 0 31.154 0 30.6083 0.545754ZM32.5429 3.11309C32.1337 3.11309 31.8016 2.7776 31.8016 2.36398C31.8016 1.95036 32.1337 1.61488 32.5429 1.61488C32.952 1.61488 33.2841 1.95036 33.2841 2.36398C33.2841 2.7776 32.9525 3.11309 32.5429 3.11309ZM31.9075 8.32284V3.65156H33.1782V8.32284H31.9075ZM36.9904 8.32284H38.2611V5.45255C38.2611 3.2218 35.8878 3.30291 35.2961 4.40109V3.65156H34.0254V8.32284H35.2961V5.94303C35.2961 4.62106 36.9904 4.51277 36.9904 5.94303V8.32284Z" fill="#0A66C2"/>
<path d="M4.35443 7.35376V8.44237H0.944389V7.35376H4.35443ZM1.39565 1.66882V8.44237H0V1.66882H1.39565Z" fill="#0A66C2"/>
<path d="M6.77095 3.40873V8.44237H5.42647V3.40873H6.77095ZM5.34273 2.09682C5.34273 1.90143 5.41096 1.74015 5.54743 1.61299C5.68389 1.48583 5.86687 1.42225 6.09638 1.42225C6.32279 1.42225 6.50422 1.48583 6.64069 1.61299C6.78025 1.74015 6.85003 1.90143 6.85003 2.09682C6.85003 2.29221 6.78025 2.45348 6.64069 2.58064C6.50422 2.7078 6.32279 2.77138 6.09638 2.77138C5.86687 2.77138 5.68389 2.7078 5.54743 2.58064C5.41096 2.45348 5.34273 2.29221 5.34273 2.09682Z" fill="#0A66C2"/>
<path d="M9.4759 4.48338V8.44237H8.13608V3.40873H9.39216L9.4759 4.48338ZM9.28051 5.74876H8.91764C8.91764 5.37659 8.96571 5.04164 9.06186 4.7439C9.158 4.44306 9.29291 4.18719 9.46659 3.97629C9.64028 3.76229 9.84652 3.59947 10.0853 3.48781C10.3272 3.37306 10.5971 3.31568 10.8948 3.31568C11.1305 3.31568 11.3461 3.3498 11.5415 3.41803C11.7369 3.48626 11.9043 3.59481 12.0439 3.74368C12.1866 3.89255 12.2951 4.08949 12.3695 4.33451C12.4471 4.57952 12.4859 4.87881 12.4859 5.23237V8.44237H11.1367V5.22772C11.1367 5.00442 11.1057 4.83074 11.0437 4.70668C10.9817 4.58262 10.8902 4.49578 10.7692 4.44616C10.6513 4.39343 10.5056 4.36707 10.3319 4.36707C10.152 4.36707 9.99539 4.40274 9.86203 4.47407C9.73177 4.54541 9.62322 4.64465 9.53638 4.77181C9.45264 4.89587 9.38906 5.04164 9.34564 5.20911C9.30222 5.37659 9.28051 5.55648 9.28051 5.74876Z" fill="#0A66C2"/>
<path d="M15.1303 1.29199V8.44237H13.7905V1.29199H15.1303ZM18.3031 3.40873L16.1166 5.90229L14.9442 7.08859L14.4558 6.12094L15.3862 4.93929L16.6935 3.40873H18.3031ZM16.9121 8.44237L15.4234 6.11629L16.3492 5.30681L18.4566 8.44237H16.9121Z" fill="#0A66C2"/>
<path d="M21.3895 8.53541C20.9988 8.53541 20.6483 8.47338 20.3381 8.34932C20.028 8.22217 19.7644 8.04693 19.5473 7.82363C19.3333 7.60033 19.1689 7.34136 19.0541 7.04672C18.9394 6.74898 18.882 6.43263 18.882 6.09768V5.91159C18.882 5.53011 18.9363 5.1812 19.0448 4.86485C19.1534 4.54851 19.3085 4.27403 19.5101 4.04142C19.7148 3.80881 19.9629 3.63048 20.2544 3.50642C20.5459 3.37926 20.8747 3.31568 21.2407 3.31568C21.5973 3.31568 21.9137 3.37461 22.1897 3.49247C22.4657 3.61032 22.6968 3.7778 22.8829 3.9949C23.0721 4.212 23.2147 4.47252 23.3109 4.77646C23.407 5.0773 23.4551 5.41226 23.4551 5.78133V6.33959H19.4542V5.44637H22.1385V5.34403C22.1385 5.15794 22.1044 4.99201 22.0362 4.84625C21.9711 4.69738 21.8718 4.57952 21.7384 4.49268C21.6051 4.40584 21.4345 4.36242 21.2267 4.36242C21.0499 4.36242 20.898 4.40119 20.7708 4.47872C20.6436 4.55626 20.5397 4.66481 20.4591 4.80438C20.3816 4.94394 20.3226 5.10832 20.2823 5.2975C20.2451 5.48359 20.2265 5.68829 20.2265 5.91159V6.09768C20.2265 6.29927 20.2544 6.48536 20.3102 6.65594C20.3692 6.82652 20.4513 6.97383 20.5568 7.09789C20.6653 7.22195 20.7956 7.31809 20.9476 7.38633C21.1026 7.45456 21.2779 7.48867 21.4733 7.48867C21.7152 7.48867 21.94 7.44215 22.1478 7.34911C22.3587 7.25296 22.5402 7.10875 22.6921 6.91646L23.3434 7.62359C23.238 7.77556 23.0938 7.92133 22.9108 8.06089C22.7309 8.20046 22.5138 8.31521 22.2595 8.40515C22.0052 8.49199 21.7152 8.53541 21.3895 8.53541Z" fill="#0A66C2"/>
<path d="M27.4766 7.34446V1.29664H28.8257V8.44237H27.6115L27.4766 7.34446ZM24.2945 5.98602V5.88833C24.2945 5.50375 24.3379 5.15484 24.4248 4.84159C24.5116 4.52525 24.6388 4.25387 24.8063 4.02746C24.9737 3.80106 25.18 3.62583 25.425 3.50177C25.67 3.37771 25.9491 3.31568 26.2624 3.31568C26.557 3.31568 26.8145 3.37771 27.0347 3.50177C27.258 3.62583 27.4471 3.80261 27.6022 4.03212C27.7604 4.25852 27.8876 4.5268 27.9837 4.83694C28.0798 5.14398 28.1496 5.48049 28.193 5.84646V6.06046C28.1496 6.41092 28.0798 6.73657 27.9837 7.03741C27.8876 7.33825 27.7604 7.60188 27.6022 7.82828C27.4471 8.05159 27.258 8.22527 27.0347 8.34932C26.8114 8.47338 26.5508 8.53541 26.2531 8.53541C25.9398 8.53541 25.6607 8.47183 25.4157 8.34467C25.1738 8.21751 24.9691 8.03918 24.8016 7.80967C24.6372 7.58017 24.5116 7.31034 24.4248 7.0002C24.3379 6.69005 24.2945 6.35199 24.2945 5.98602ZM25.6344 5.88833V5.98602C25.6344 6.19382 25.6499 6.38766 25.6809 6.56755C25.715 6.74743 25.7693 6.90715 25.8437 7.04672C25.9212 7.18318 26.0205 7.29018 26.1414 7.36772C26.2655 7.44215 26.4159 7.47937 26.5927 7.47937C26.8222 7.47937 27.0114 7.4282 27.1603 7.32585C27.3091 7.2204 27.4223 7.07618 27.4999 6.8932C27.5805 6.71021 27.627 6.49931 27.6394 6.2605V5.65107C27.6301 5.45568 27.6022 5.28045 27.5557 5.12537C27.5123 4.9672 27.4471 4.83229 27.3603 4.72064C27.2766 4.60898 27.1711 4.52214 27.044 4.46012C26.9199 4.39809 26.7726 4.36707 26.602 4.36707C26.4283 4.36707 26.2795 4.40739 26.1554 4.48803C26.0313 4.56556 25.9305 4.67256 25.853 4.80903C25.7786 4.94549 25.7227 5.10677 25.6855 5.29285C25.6514 5.47584 25.6344 5.67433 25.6344 5.88833Z" fill="#0A66C2"/>
</svg>
