<svg width="24" height="24" viewBox="0 0 24 24" fill="none" xmlns="http://www.w3.org/2000/svg">
<g clip-path="url(#clip0_234_619)">
<path d="M21.29 5.89L11.29 15.89C10.9 16.28 10.27 16.28 9.87998 15.89L7.04998 13.06C6.65998 12.67 6.65998 12.04 7.04998 11.65C7.43998 11.26 8.06998 11.26 8.45998 11.65L10.58 13.77L19.87 4.48C20.26 4.09 20.89 4.09 21.28 4.48C21.68 4.87 21.68 5.5 21.29 5.89ZM15.77 2.74C14.08 2.05 12.16 1.81 10.16 2.17C6.08998 2.9 2.83998 6.18 2.14998 10.25C1.00998 17 6.62998 22.78 13.34 21.91C17.3 21.4 20.62 18.45 21.66 14.6C22.06 13.13 22.1 11.71 21.87 10.38C21.74 9.58 20.75 9.27 20.17 9.84C19.94 10.07 19.84 10.41 19.9 10.73C20.12 12.06 20.02 13.48 19.38 14.99C18.22 17.7 15.7 19.69 12.77 19.96C7.66998 20.43 3.43998 16.11 4.06998 10.98C4.49998 7.44 7.34998 4.56 10.88 4.07C12.61 3.83 14.25 4.16 15.65 4.88C16.04 5.08 16.51 5.01 16.82 4.7C17.3 4.22 17.18 3.41 16.58 3.1C16.31 2.98 16.04 2.85 15.77 2.74Z" fill="white"/>
</g>
<defs>
<clipPath id="clip0_234_619">
<rect width="24" height="24" fill="white"/>
</clipPath>
</defs>
</svg>
