<svg width="41" height="40" viewBox="0 0 41 40" fill="none" xmlns="http://www.w3.org/2000/svg">
<g clip-path="url(#clip0_0_1)">
<path d="M29.4372 20.22C29.4372 14.73 25.1482 11 20.3758 11C15.6538 11 11.3144 14.65 11.3144 20.28C10.7103 20.62 10.3076 21.26 10.3076 22V24C10.3076 25.1 11.2138 26 12.3213 26H13.3281V19.9C13.3281 16.03 16.4794 12.9 20.3758 12.9C24.2722 12.9 27.4236 16.03 27.4236 19.9V27H19.369V29H27.4236C28.5311 29 29.4372 28.1 29.4372 27V25.78C30.0312 25.47 30.444 24.86 30.444 24.14V21.84C30.444 21.14 30.0312 20.53 29.4372 20.22Z" fill="#007AD3"/>
<path d="M17.3553 22C17.9114 22 18.3622 21.5523 18.3622 21C18.3622 20.4477 17.9114 20 17.3553 20C16.7993 20 16.3485 20.4477 16.3485 21C16.3485 21.5523 16.7993 22 17.3553 22Z" fill="#007AD3"/>
<path d="M23.3963 22C23.9524 22 24.4032 21.5523 24.4032 21C24.4032 20.4477 23.9524 20 23.3963 20C22.8403 20 22.3895 20.4477 22.3895 21C22.3895 21.5523 22.8403 22 23.3963 22Z" fill="#007AD3"/>
<path d="M26.4167 19.03C25.9335 16.18 23.4366 14 20.4262 14C17.3755 14 14.0933 16.51 14.355 20.45C16.8419 19.44 18.7146 17.24 19.2482 14.56C20.5671 17.19 23.2755 19 26.4167 19.03Z" fill="#007AD3"/>
</g>
<ellipse cx="20.3757" cy="20" rx="20.1364" ry="20" fill="#007AD3" fill-opacity="0.2"/>
<defs>
<clipPath id="clip0_0_1">
<rect width="24.1637" height="24" fill="white" transform="translate(8.29395 8)"/>
</clipPath>
</defs>
</svg>
