<svg width="40" height="40" viewBox="0 0 40 40" fill="none" xmlns="http://www.w3.org/2000/svg">
<circle cx="20" cy="20" r="20" fill="white" fill-opacity="0.2"/>
<g clip-path="url(#clip0_234_634)">
<path d="M17.68 21.69L20 19.93L22.31 21.69L21.43 18.84L23.75 17H20.91L20 14.19L19.09 17H16.25L18.56 18.84L17.68 21.69ZM28 18C28 13.58 24.42 10 20 10C15.58 10 12 13.58 12 18C12 20.03 12.76 21.87 14 23.28V31L20 29L26 31V23.28C27.24 21.87 28 20.03 28 18ZM20 12C23.31 12 26 14.69 26 18C26 21.31 23.31 24 20 24C16.69 24 14 21.31 14 18C14 14.69 16.69 12 20 12Z" fill="white"/>
</g>
<defs>
<clipPath id="clip0_234_634">
<rect width="24" height="24" fill="white" transform="translate(8 8)"/>
</clipPath>
</defs>
</svg>
