<svg width="12" height="12" viewBox="0 0 12 12" fill="none" xmlns="http://www.w3.org/2000/svg">
<path fill-rule="evenodd" clip-rule="evenodd" d="M2.1756 7.7077L4.22944 9.76155C4.32175 9.85386 4.46021 9.85386 4.55252 9.76155L9.6756 4.61539C9.7679 4.52309 9.7679 4.38462 9.6756 4.29232L7.64483 2.26155C7.55252 2.16924 7.41406 2.16924 7.32175 2.26155L2.1756 7.4077C2.08329 7.50001 2.08329 7.63847 2.1756 7.7077ZM8.31406 1.31539C8.22175 1.4077 8.22175 1.54616 8.31406 1.63847L10.3448 3.66924C10.4371 3.76155 10.5756 3.76155 10.6679 3.66924L11.2448 3.09232C11.6141 2.74616 11.6141 2.19232 11.2448 1.82309L10.1602 0.738471C9.79098 0.36924 9.21406 0.36924 8.84483 0.738471L8.31406 1.31539ZM0.467905 11.1231C0.421751 11.3539 0.629443 11.5615 0.860212 11.5154L3.3756 10.9154C3.4679 10.8923 3.53714 10.8462 3.58329 10.8L3.62944 10.7539C3.6756 10.7077 3.69867 10.5462 3.60637 10.4539L1.52944 8.37693C1.43714 8.28463 1.2756 8.3077 1.22944 8.35386L1.18329 8.40001C1.11406 8.46924 1.09098 8.53847 1.0679 8.6077L0.467905 11.1231Z" fill="#6F6F6F" fill-opacity="0.7"/>
</svg>
